<?xml version="1.0" encoding="utf-8"?>
<!-- Svg Vector Icons : http://www.onlinewebfonts.com/icon -->
<!DOCTYPE svg PUBLIC "-//W3C//DTD SVG 1.1//EN" "http://www.w3.org/Graphics/SVG/1.1/DTD/svg11.dtd">
<svg version="1.1" xmlns="http://www.w3.org/2000/svg" xmlns:xlink="http://www.w3.org/1999/xlink" x="0px" y="0px" viewBox="0 0 1000 1000" enable-background="new 0 0 1000 1000" xml:space="preserve">
<metadata> Svg Vector Icons : http://www.onlinewebfonts.com/icon </metadata>
<g><g transform="translate(0.000000,511.000000) scale(0.100000,-0.100000)"><path d="M4283.1,4730.3c-352.4-37.2-849.6-146.8-1117.9-244.7c-285.8-105.7-589.3-346.5-761.5-604.9c-428.7-646-334.8-1437,260.4-2188.7c68.5-88.1,366.1-379.8,687.2-679.3L3917,487.9l-66.6-92C3686,166.9,3615.5-81.7,3631.1-381.3l9.8-187.9l-276,11.7c-469.8,19.6-787,131.2-988.6,348.5c-479.6,522.7-720.4,675.4-1100.2,697C982.4,505.6,739.6,405.7,492.9,161C328.5-1.5,295.2-66.1,209.1-400.9c-325-1272.5,84.2-2566.5,1121.8-3549.3c307.4-291.7,469.8-397.4,745.9-487.5c789-256.4,1650.4,156.6,2049.7,982.8c139,287.8,178.2,436.6,326.9,1231.4l141,751.7l160.5-7.8c299.5-15.7,618.6,94,830.1,283.9l101.8,92l37.2-48.9c68.5-92,209.5-342.6,262.3-465.9c142.9-340.6,162.5-614.7,66.6-882.9c-86.1-242.8-115.5-407.2-115.5-644.1c0-352.4,80.3-573.6,283.9-775.2c211.4-211.4,595.1-364.1,841.8-334.8c268.2,31.3,745.9,215.3,1072.8,411.1c900.5,540.3,1472.2,1399.7,1718.9,2586.1c129.2,622.5-19.6,1174.6-424.8,1583.8C9091.2,666.1,8686,803.1,8071.2,781.6c-424.9-15.7-579.5-56.8-1429.1-379.8l-714.6-274.1L5859,256.9c-105.7,201.6-321.1,407.2-540.3,514.9l-180.1,86.1l109.6,166.4c205.6,307.4,485.5,561.9,714.6,648c52.9,19.6,168.4,45,256.5,56.8c828.1,99.8,1333.2,616.7,1243.1,1268.6c-37.2,272.1-80.3,368.1-250.6,571.7c-270.2,323-651.9,616.7-1068.9,820.3c-471.8,233-882.9,330.8-1429.1,340.6C4519.9,4734.2,4326.1,4734.2,4283.1,4730.3z M5036.8,4289.8c485.5-56.8,1041.5-289.7,1433-601c78.3-62.7,223.2-199.7,323-303.4c207.5-217.3,240.8-293.7,240.8-542.3c0-121.4-9.8-168.4-50.9-248.6c-117.5-238.8-428.7-405.2-845.8-454.2c-297.5-37.2-489.4-121.4-751.8-332.8c-217.3-174.2-418.9-424.8-603-743.9l-99.8-172.3l-111.6-23.5c-60.7-13.7-162.5-47-225.1-74.4c-111.6-50.9-113.6-50.9-156.6-11.7c-650,577.5-1162.9,1067-1272.5,1211.8c-248.6,330.8-372,659.7-372,986.7c0,332.8,113.5,599.1,358.3,841.8c182.1,184,346.5,272.1,650,352.4C4093.2,4317.2,4519.9,4350.5,5036.8,4289.8z M5120.9,437c156.6-60.7,327-223.2,409.2-389.6c58.7-119.4,64.6-144.9,64.6-317.1c0-166.4-5.9-199.7-60.7-313.2c-111.6-236.9-336.7-405.3-599.1-450.3c-432.6-76.4-853.5,256.5-890.8,698.9c-29.4,360.2,191.9,681.3,552.1,802.7C4711.8,505.6,4982,489.9,5120.9,437z M8456.9,345c479.6-97.9,796.8-379.8,957.3-849.6c58.7-170.3,50.9-512.9-19.6-812.5c-82.2-354.4-176.2-616.7-325-920.1c-393.5-792.9-1076.7-1360.6-1891.1-1566.2c-166.4-43.1-188-45-307.4-19.6c-338.7,70.5-501.2,262.3-518.8,612.8c-9.8,209.5,13.7,354.4,97.9,591.2c176.2,497.2,27.4,1125.7-413.1,1742.4l-115.5,162.5l29.4,80.3c15.7,45,33.3,139,39.2,209.5l11.7,129.2L6747.8-9.3c409.1,158.6,798.7,301.5,865.3,317.1C7900.9,380.3,8222,394,8456.9,345z M1418.9,41.6c162.5-52.8,313.2-154.6,444.4-295.6c366.1-391.5,399.4-419,589.3-511c307.4-148.8,730.2-225.1,1141.3-203.6l211.4,11.7l150.7-152.7c82.2-84.2,170.3-164.4,193.8-180.1l41.1-27.4L4050.1-2061c-158.6-830.1-180.1-912.3-285.8-1137.4c-319.1-685.2-877-994.5-1511.4-839.9c-248.6,62.6-530.5,258.4-824.2,575.6c-761.6,824.2-1065,1738.4-902.5,2703.6C588.9-393,669.1-207,812-89.6C1017.6,78.8,1195.8,117.9,1418.9,41.6z"/></g></g>
</svg>