<?xml version="1.0" encoding="utf-8"?>
<!-- Generator: Adobe Illustrator 24.1.2, SVG Export Plug-In . SVG Version: 6.00 Build 0)  -->
<svg version="1.1" id="Слой_1" xmlns="http://www.w3.org/2000/svg" xmlns:xlink="http://www.w3.org/1999/xlink" x="0px" y="0px"
	 viewBox="0 0 1000 1000" style="enable-background:new 0 0 1000 1000;" xml:space="preserve">
<style type="text/css">
	.st0{fill:#00F439;}
</style>
<path d="M428.3,38c-35.2,3.7-85,14.7-111.8,24.5c-28.6,10.6-58.9,34.6-76.1,60.5c-42.9,64.6-33.5,143.7,26,218.9
	c6.9,8.8,36.6,38,68.7,67.9l56.6,52.5l-6.7,9.2c-16.4,22.9-23.5,47.8-21.9,77.7l1,18.8l-27.6-1.2c-47-2-78.7-13.1-98.9-34.9
	c-48-52.3-72-67.5-110-69.7c-29.4-1.8-53.7,8.2-78.3,32.7c-16.4,16.3-19.8,22.7-28.4,56.2C-11.6,678.3,29.3,807.7,133.1,906
	c30.7,29.2,47,39.7,74.6,48.8c78.9,25.6,165-15.7,205-98.3c13.9-28.8,17.8-43.7,32.7-123.1l14.1-75.2l16,0.8
	c30,1.6,61.9-9.4,83-28.4l10.2-9.2l3.7,4.9c6.8,9.2,21,34.3,26.2,46.6c14.3,34.1,16.3,61.5,6.7,88.3c-8.6,24.3-11.5,40.7-11.5,64.4
	c0,35.2,8,57.4,28.4,77.5c21.1,21.1,59.5,36.4,84.2,33.5c26.8-3.1,74.6-21.5,107.3-41.1c90-54,147.2-140,171.9-258.6
	c12.9-62.3-2-117.5-42.5-158.4c-33.9-34.1-74.4-47.8-135.9-45.6c-42.5,1.6-58,5.7-142.9,38l-71.5,27.4l-6.8-12.9
	c-10.6-20.2-32.1-40.7-54-51.5l-18-8.6l11-16.6c20.6-30.7,48.6-56.2,71.5-64.8c5.3-2,16.8-4.5,25.7-5.7
	c82.8-10,133.3-61.7,124.3-126.9c-3.7-27.2-8-36.8-25.1-57.2c-27-32.3-65.2-61.7-106.9-82C567.1,48.7,526,38.9,471.4,38
	C452,37.6,432.6,37.6,428.3,38z"/>
<path class="st0" d="M503.7,82c48.5,5.7,104.2,29,143.3,60.1c7.8,6.3,22.3,20,32.3,30.3c20.8,21.7,24.1,29.4,24.1,54.2
	c0,12.1-1,16.8-5.1,24.9c-11.8,23.9-42.9,40.5-84.6,45.4c-29.8,3.7-48.9,12.1-75.2,33.3c-21.7,17.4-41.9,42.5-60.3,74.4l-10,17.2
	l-11.2,2.3c-6.1,1.4-16.3,4.7-22.5,7.4c-11.2,5.1-11.4,5.1-15.7,1.2c-65-57.8-116.3-106.7-127.3-121.2c-24.9-33.1-37.2-66-37.2-98.7
	c0-33.3,11.4-59.9,35.8-84.2c18.2-18.4,34.7-27.2,65-35.2C409.3,79.3,452,75.9,503.7,82z"/>
<path class="st0" d="M512.1,467.3c15.7,6.1,32.7,22.3,40.9,39c5.9,11.9,6.5,14.5,6.5,31.7c0,16.6-0.6,20-6.1,31.3
	c-11.2,23.7-33.7,40.5-59.9,45c-43.3,7.6-85.4-25.7-89.1-69.9c-2.9-36,19.2-68.1,55.2-80.3C471.2,460.4,498.2,462,512.1,467.3z"/>
<path class="st0" d="M845.7,476.5c48,9.8,79.7,38,95.7,85c5.9,17,5.1,51.3-2,81.3c-8.2,35.4-17.6,61.7-32.5,92
	c-39.3,79.2-107.6,136-189,156.5c-16.6,4.3-18.8,4.5-30.7,2c-33.9-7-50.1-26.2-51.9-61.3c-1-20.9,1.4-35.4,9.8-59.1
	c17.6-49.7,2.7-112.6-41.3-174.2l-11.5-16.3l2.9-8c1.6-4.5,3.3-13.9,3.9-21l1.2-12.9l74.6-28.6c40.9-15.9,79.9-30.1,86.5-31.7
	C790.1,473,822.2,471.6,845.7,476.5z"/>
<path class="st0" d="M141.9,506.8c16.3,5.3,31.3,15.5,44.4,29.6c36.6,39.2,39.9,41.9,58.9,51.1c30.7,14.9,73,22.5,114.1,20.4
	l21.1-1.2l15.1,15.3c8.2,8.4,17,16.4,19.4,18l4.1,2.7l-14,74.4c-15.9,83-18,91.2-28.6,113.7c-31.9,68.5-87.7,99.5-151.1,84
	c-24.9-6.3-53.1-25.8-82.4-57.6C66.7,774.8,36.4,683.4,52.6,586.9c6.3-36.6,14.3-55.2,28.6-67C101.8,503.1,119.6,499.2,141.9,506.8z
	"/>
</svg>
