<?xml version="1.0" encoding="utf-8"?>
<!-- Svg Vector Icons : http://www.onlinewebfonts.com/icon -->
<!DOCTYPE svg PUBLIC "-//W3C//DTD SVG 1.1//EN" "http://www.w3.org/Graphics/SVG/1.1/DTD/svg11.dtd">
<svg version="1.1" xmlns="http://www.w3.org/2000/svg" xmlns:xlink="http://www.w3.org/1999/xlink" x="0px" y="0px" viewBox="0 0 1000 1000" enable-background="new 0 0 1000 1000" xml:space="preserve">
<metadata> Svg Vector Icons : http://www.onlinewebfonts.com/icon </metadata>
<g><g transform="translate(0.000000,511.000000) scale(0.100000,-0.100000)"><path d="M3575,4939.9c-276.6-87.5-563.7-339.6-700.2-619.7c-84-171.6-98-241.6-98-497.2c0-248.6,14-329.1,91-490.2c91-192.6,273.1-406.2,437.7-514.7l87.5-56l-98-59.5c-147-87.5-360.6-339.6-444.6-521.7c-105-234.6-105-689.7,7-927.8c119.1-262.6,294.1-451.7,539.2-584.7c206.6-112,241.6-119,535.7-119c364.1,0,546.2,66.5,784.3,280.1L4860,959V-112.4v-1071.4H3851.6c-756.3,0-1022.4-10.5-1067.9-45.5c-52.5-38.5-59.5-98-52.5-462.1l10.5-420.1l133-10.5c70-7,129.6-14,129.6-21c0-3.5,87.5-430.7,192.6-945.3c105-514.7,192.6-941.8,192.6-948.8c0-7-42-17.5-94.5-24.6c-70-7-101.5-31.5-108.5-91c-14-84,105-427.1,189.1-556.7l49-80.5H5000h1575.5l49,80.5c84,129.6,203.1,472.7,189,556.7c-7,59.5-38.5,84-105,91c-56,7-98,17.5-98,24.6c0,14,297.6,1467,350.1,1722.6c38.5,175.1,45.5,182.1,168,192.6l129.6,10.5l10.5,420.1c7,364.1,0,423.6-52.5,462.1c-45.5,35-311.6,45.5-1067.9,45.5H5140v1074.9V966l133-126c217.1-213.6,427.1-290.6,794.8-290.6c276.6,0,336.1,14,500.7,98c245.1,129.6,448.1,339.6,563.7,581.2c119,259.1,126,700.2,10.5,955.8c-80.5,182.1-290.6,427.1-437.7,518.2l-98,59.5l136.5,101.5c336.1,248.6,479.7,532.2,479.7,959.3c0,360.6-73.5,542.7-318.6,805.3c-318.6,339.6-749.3,455.2-1204.4,318.6c-213.6-66.5-283.6-108.5-455.2-276.6c-108.5-108.5-210.1-224.1-224.1-252.1c-17.5-42-24.5-45.5-42-3.5c-42,91-276.6,329.1-402.6,409.7c-164.5,101.5-462.2,189.1-640.7,185.6C3855.1,5009.9,3694.1,4978.4,3575,4939.9z M4299.8,4659.8c210.1-94.5,374.6-259.1,476.2-469.2c105-217.1,112-437.6,21-437.6c-35,0-143.6-38.5-234.6-87.5l-171.6-84l-199.6,189.1c-220.6,210.1-217.1,210.1-315.1,157.6c-108.5-59.5-77-143.6,126-350.1l192.6-192.6l-87.5-171.6c-49-94.5-87.5-203.1-87.5-238.1c0-49-28-63-129.6-63c-696.7,10.5-1088.9,843.8-686.2,1446C3428,4687.8,3932.1,4827.8,4299.8,4659.8z M6453,4645.8c535.7-259.1,675.7-976.8,283.6-1442.5c-126.1-150.5-416.7-290.6-605.7-290.6c-122.5,0-150.5,10.5-150.5,63c0,35-38.5,143.6-87.5,238.1l-87.5,171.6l192.6,192.6c203.1,206.6,234.6,290.6,126.1,350.1c-98.1,52.5-94.5,52.5-315.1-157.6l-199.6-189.1l-171.6,84c-91,49-199.6,87.5-234.6,87.5c-164.5,0-10.5,507.7,220.6,724.8c196.1,182.1,399.1,259.1,661.7,245.1C6214.9,4715.8,6372.5,4684.3,6453,4645.8z M5220.6,3469.4c171.6-45.5,367.6-220.6,448.2-399.1c217.1-472.7-147.1-1032.9-668.7-1032.9c-521.7,0-885.8,563.7-668.7,1032.9C4488.8,3413.3,4846,3574.4,5220.6,3469.4z M4019.7,2562.5c0-42,38.5-147.1,84-241.6l87.5-168.1l-175.1-171.6c-192.6-189.1-231.1-273.1-171.6-346.6c73.5-91,154.1-59.5,350.1,140c185.6,189.1,189.1,192.6,276.6,133c49-31.5,154-77,231.1-98c161.1-49,185.6-119,122.5-346.6c-108.5-392.1-458.7-651.2-875.3-651.2c-637.2,0-1053.9,577.7-868.3,1197.4c94.5,322.1,479.7,612.7,826.3,619.7C3998.7,2632.6,4019.7,2618.6,4019.7,2562.5z M6463.5,2531c178.6-91,402.6-346.6,455.2-521.7c185.6-619.7-231.1-1197.4-868.3-1197.4c-406.1,0-731.7,231.1-861.3,609.2c-87.5,248.6-59.5,332.6,122.5,395.7c87.5,28,189,73.5,231.1,101.5c66.5,45.5,87.5,35,262.6-143.6c196.1-199.6,276.6-231.1,350.1-140c59.5,73.5,21,157.6-171.5,346.6l-171.6,168.1l84,182.1c45.5,98,84,210.1,84,245.1c0,59.5,21,63,171.6,45.5C6246.4,2611.6,6386.5,2569.6,6463.5,2531z M7030.7-1656.4V-1849H5000H2969.3v192.6v192.6H5000h2030.7V-1656.4z M6715.6-2150.1c0-21-346.6-1712.1-374.6-1824.2l-17.5-80.5H5000h-1327l-52.5,255.6c-94.5,434.2-336.1,1617.6-336.1,1645.6c0,14,773.8,24.5,1715.6,24.5C5945.3-2129.1,6715.6-2139.6,6715.6-2150.1z M6463.5-4422.4l-38.5-87.5H5000H3575l-38.5,87.5l-42,87.5H5000h1505.5L6463.5-4422.4z"/><path d="M3393,202.7c-73.5-87.5-28-444.7,84-668.7c164.6-343.1,479.7-549.7,910.3-598.7c238.1-28,280.1,21,252.1,297.6c-49,542.7-437.7,931.3-1008.4,1001.3C3477,251.7,3428,248.2,3393,202.7z M3949.6-136.9c224.1-112,420.1-388.7,420.1-591.7c0-59.6-14-66.5-94.5-49c-339.6,80.5-640.7,402.6-640.7,679.3c0,59.5,14,66.5,98,49C3785.1-63.3,3883.1-101.9,3949.6-136.9z"/><path d="M6239.4,216.7C5735.3,115.2,5350.1-340,5350.1-830.1c0-220.6,52.5-266.1,273.1-234.6c584.7,77,962.8,451.6,1011.9,997.9C6663.1,248.2,6607.1,290.3,6239.4,216.7z M6365.5-98.4c0-276.6-301.1-598.7-637.2-679.3c-84-17.5-98-10.5-98,49c0,262.6,273.1,570.7,595.2,668.7C6358.5-21.4,6365.5-21.4,6365.5-98.4z"/></g></g>
</svg>