<?xml version="1.0" encoding="utf-8"?>
<!-- Svg Vector Icons : http://www.onlinewebfonts.com/icon -->
<!DOCTYPE svg PUBLIC "-//W3C//DTD SVG 1.1//EN" "http://www.w3.org/Graphics/SVG/1.1/DTD/svg11.dtd">
<svg version="1.1" xmlns="http://www.w3.org/2000/svg" xmlns:xlink="http://www.w3.org/1999/xlink" x="0px" y="0px" viewBox="0 0 1000 1000" enable-background="new 0 0 1000 1000" xml:space="preserve">
<metadata> Svg Vector Icons : http://www.onlinewebfonts.com/icon </metadata>
<g><g transform="translate(0.000000,511.000000) scale(0.100000,-0.100000)"><path d="M235.5,3842.5c-144.1-87.3-135.3,93.8-135.3-3057.8c0-3201.9-10.9-2970.5,155-3053.4c72-37.1,128.8-43.7,412.5-43.7H995v294.6v294.6H842.2H689.4V797.8v2520.9h3634h3634v-163.7v-165.9l290.3,6.6l288.1,6.5l6.5,290.3c6.5,333.9-13.1,430-104.8,517.3l-67.6,65.5l-4031.2,6.5C325,3886.1,307.5,3886.1,235.5,3842.5z"/><path d="M1638.9,2511.1c-58.9-24-133.1-106.9-161.5-181.2c-17.5-43.6-24-942.9-24-2902.9c0-2719.5,2.2-2846.1,41.5-2931.2c80.8-176.8-303.4-161.5,4210.2-157.1l4015.9,6.5l58.9,54.6c126.6,115.7,120-43.7,120,3038.2c0,2664.9-2.2,2848.3-39.3,2920.3c-19.7,41.5-69.9,98.2-111.3,124.4l-74.2,50.2l-3996.3-2.2C3481,2530.7,1662.9,2522,1638.9,2511.1z M9310.6-577.3v-2520.9h-3634h-3634v2520.9v2520.9h3634h3634V-577.3z"/><path d="M3729.8,944c-305.6-109.1-471.4-338.3-471.4-654.8c0-137.5,8.7-176.8,74.2-303.4c220.4-434.3,785.7-506.3,1115.3-139.7c303.4,338.3,183.3,890.5-235.7,1073.8C4070.3,983.3,3867.3,994.2,3729.8,944z"/><path d="M5764-372.1c-347-541.3-643.9-988.7-659.2-995.3c-15.3-6.6-74.2,0-133.1,13.1c-58.9,10.9-237.9,32.7-397.2,45.8c-903.6,78.6-1604.2-203-1861.7-744.3c-41.5-89.5-82.9-194.3-91.7-231.4l-15.3-72h3081.8c1693.7,0,3077.4,8.7,3073.1,17.5c-2.2,10.9-172.4,510.7-375.4,1113.1c-205.2,602.4-377.6,1095.7-384.1,1095.7S7872.3-291.4,7730.4-490c-141.9-198.6-264.1-360.1-272.8-360.1c-8.7,0-246.6,329.6-528.2,731.2c-281.6,401.6-515.1,729-521.7,729C6401.3,612.2,6113.2,169.2,5764-372.1z"/></g></g>
</svg>