<?xml version="1.0" encoding="utf-8"?>
<!-- Svg Vector Icons : http://www.onlinewebfonts.com/icon -->
<!DOCTYPE svg PUBLIC "-//W3C//DTD SVG 1.1//EN" "http://www.w3.org/Graphics/SVG/1.1/DTD/svg11.dtd">
<svg version="1.1" xmlns="http://www.w3.org/2000/svg" xmlns:xlink="http://www.w3.org/1999/xlink" x="0px" y="0px" viewBox="0 0 1000 1000" enable-background="new 0 0 1000 1000" xml:space="preserve">
<metadata> Svg Vector Icons : http://www.onlinewebfonts.com/icon </metadata>
<g><g><path d="M990,524.9c0,27.4-22.2,49.7-49.7,49.7c-0.1,0-0.3,0-0.5,0h-94.6v264.4c0,27.4-22.3,49.7-49.7,49.7H632.3c-27.4,0-49.7-22.3-49.7-49.7V698.8c0-45.7-37.2-82.8-82.8-82.8c-45.7,0-82.9,37.2-82.9,82.8v140.1c0,27.4-22.3,49.7-49.7,49.7H204c-27.4,0-49.7-22.3-49.7-49.7V574.6H59.7c-21,0-39.7-13.1-46.8-32.8C5.8,522,11.9,499.9,28,486.5l440.1-363.8c18.4-15.2,45-15.2,63.3,0l436,360.4C981,492.1,990,507.4,990,524.9z"/></g><g></g><g></g><g></g><g></g><g></g><g></g><g></g><g></g><g></g><g></g><g></g><g></g><g></g><g></g><g></g></g>
</svg>