<?xml version="1.0" encoding="utf-8"?>
<!-- Generator: Adobe Illustrator 24.1.2, SVG Export Plug-In . SVG Version: 6.00 Build 0)  -->
<svg version="1.1" id="Слой_1" xmlns="http://www.w3.org/2000/svg" xmlns:xlink="http://www.w3.org/1999/xlink" x="0px" y="0px"
	 viewBox="0 0 1000 1000" style="enable-background:new 0 0 1000 1000;" xml:space="preserve">
<style type="text/css">
	.st0{fill:#FAFF31;}
	.st1{fill:#25B6F5;}
</style>
<path d="M409.4,11.3c-43.8,9.2-82.6,44.2-95.4,85.5c-4.5,14.4-4.5,20.9-4.5,279.8v265.2l-13.5,13.9c-53.2,55-71.8,134.8-48,204.8
	c20.9,61.7,79,112.6,144.3,126.5c19.1,4,53.2,4,72.2,0c63.3-13.5,121.4-63.5,142.7-122.7c25.8-71.3,7.2-154.8-46.7-208.6l-13.2-13.2
	l-0.5-269.7l-0.7-269.9l-4.9-12.3c-15.3-37-49.4-67.5-87.3-77.4C441.9,9.9,419.7,9,409.4,11.3z"/>
<path class="st0" d="M461,64.4c14.6,6.5,25.1,17.3,32.3,32.8l5.8,12.3l1.1,279.5l1.1,279.8l14.4,10.8
	c34.1,25.6,53.4,62.6,55.6,106.4c1.6,30.7-2.7,50.7-16.4,78.5c-28.9,59-90.9,88.6-157.5,74.9c-53.6-10.8-95.6-53.6-109.3-111.3
	c-4.3-18.4-4.3-51.2,0-68c8.5-32.5,28.7-63,54.5-81.9l13.9-10.1V393.3c0-245.5,0.5-276.4,3.6-287.4c7.2-24.2,26-41.7,50.9-46.9
	C425.3,56.1,448.2,58.6,461,64.4z"/>
<path d="M422.6,417.3c-2.7,0.5-7.6,4-11.2,7.6l-6.5,6.7L404.2,569l-0.5,137.3l-15,7.8c-27.4,14.1-48.7,41.5-54.5,70.2
	c-9.6,47.1,29.8,100.1,81.2,109.5c46.4,8.3,98-31,107.5-81.7c6.5-36.1-17.1-78.5-54.7-98l-15-7.9L452.7,569L452,431.5l-6.7-6.5
	C438.3,418.5,430.9,415.8,422.6,417.3z M456.9,759.5c13.7,9,19.3,22.4,18.2,43.1c-1.4,30.5-18.2,45.3-49.8,43.5
	c-30.5-1.3-45.3-18.2-43.5-49.8c0.9-20,7.6-31.9,22.4-39.3C418.3,749.8,444.1,751,456.9,759.5z"/>
<path d="M78,40.9c-6.3,5.6-7.4,8.1-7.4,16.8c0,8.1,1.3,11.4,6.3,16.4l6.1,6.3l68,0.7c64.2,0.4,68.2,0.2,74.9-3.8
	c12.8-8.1,13.7-27.4,1.8-37.9c-5.8-4.9-6.5-4.9-74-4.9H85.2L78,40.9z"/>
<path d="M676.3,39.3c-8.1,7.4-40.4,62.6-48.7,83.7c-13.2,33.9-7.9,58.6,17.3,81.7c29.2,26.5,63.7,26.7,93.6,0.4
	c22-19.5,29.4-48,19.7-74.7c-11-30.7-44.4-87.7-54.1-92.9C694.7,32.8,683.1,33.5,676.3,39.3z"/>
<path class="st1" d="M708,132c7.8,16.1,9.2,23.8,5.4,33.6c-4.9,13-31.2,15.7-40.4,4c-8.5-11-5.8-25.1,10.5-54.1l7.9-14.4l4.7,7.6
	C698.5,112.9,703.9,123.2,708,132z"/>
<path d="M133.4,130.6c-16.4,7-20.4,26.9-8.1,39l7,7.2h44.9H222l6.7-7c10.1-9.9,10.1-23.3,0.2-33.2l-7-7l-42.2-0.4
	C156.7,129,135.9,129.7,133.4,130.6z"/>
<path d="M847.8,156.6c-10.8,5.8-46,66-55.9,95.3c-10.8,32.1,4,66.4,36.1,84.1c10.8,6.1,14.1,6.7,31.2,6.7c17,0,20.4-0.7,31.2-6.7
	c28.9-15.9,45.5-48.9,38.6-76.7c-6.7-26.2-45.1-94.4-57.4-101.9C863.5,152.6,855.8,152.1,847.8,156.6z"/>
<path class="st1" d="M871.5,243.5c12.1,22.9,13.9,34.8,7.4,44.9c-7.4,11.2-32.1,11.2-39.5,0c-6.5-9.9-4.5-22,7.2-44.9
	c6-11.4,11.4-20.6,12.3-20.6C859.9,222.8,865.5,232,871.5,243.5z"/>
<path d="M78,231.6c-6.3,5.6-7.4,8.1-7.4,17c0,9,1.1,11.4,7.4,17.1l7.2,6.5h68.4c67.5,0,68.2,0,74-5.2c11.9-10.3,11-29.8-1.8-37.5
	c-6.7-4.3-11.7-4.5-73.8-4.5H85.2L78,231.6z"/>
<path d="M126.7,326.5c-11.9,10.5-11,30.1,1.8,37.7c6.5,4,11.4,4.5,48.7,4.5c37.2,0,42.2-0.5,48.7-4.5c12.8-7.6,13.7-27.1,1.8-37.7
	c-5.6-4.7-7.4-4.9-50.5-4.9C134.1,321.5,132.3,321.8,126.7,326.5z"/>
<path d="M83.6,418.9c-7.4,3.4-14.1,13.5-14.1,21.5c0,8.3,6.7,18.2,14.6,21.5c10.3,4.3,129.4,4.5,137.8,0.2
	c15.3-7.9,18.9-26.7,7.2-38.4l-7-7l-65.7-0.5C104,416,89.4,416.4,83.6,418.9z"/>
<path d="M128.5,516.7c-12.8,7.6-13.7,27.2-1.8,37.5c5.6,4.9,7.4,5.2,50.5,5.2s44.9-0.2,50.5-5.2c11.9-10.3,11-29.8-1.8-37.5
	c-6.5-4-11.4-4.5-48.7-4.5C139.9,512.2,135,512.7,128.5,516.7z"/>
<path d="M78,615.2c-6.3,5.6-7.4,8.1-7.4,16.8c0,8.1,1.3,11.4,6.3,16.4l6.1,6.3l68,0.7c64.2,0.5,68.2,0.2,74.9-3.8
	c12.8-8.1,13.7-27.4,1.8-37.9c-5.8-4.9-6.5-4.9-74-4.9H85.2L78,615.2z"/>
</svg>
