<?xml version="1.0" encoding="utf-8"?>
<!-- Svg Vector Icons : http://www.onlinewebfonts.com/icon -->
<!DOCTYPE svg PUBLIC "-//W3C//DTD SVG 1.1//EN" "http://www.w3.org/Graphics/SVG/1.1/DTD/svg11.dtd">
<svg version="1.1" xmlns="http://www.w3.org/2000/svg" xmlns:xlink="http://www.w3.org/1999/xlink" x="0px" y="0px" viewBox="0 0 1000 1000" enable-background="new 0 0 1000 1000" xml:space="preserve">
<metadata> Svg Vector Icons : http://www.onlinewebfonts.com/icon </metadata>
<g><g transform="translate(0.000000,511.000000) scale(0.100000,-0.100000)"><path d="M2987.5,4966.7c-343.4-110-650.9-406.2-796.7-774.3l-53.9-134.7l-6.7-2697.7l-4.5-2699.9l-56.1-35.9c-80.8-51.6-307.5-341.1-401.7-507.2c-193-345.6-289.5-830.4-240.1-1211.9c53.9-415.2,220-767.6,505-1066.1c370.3-390.5,803.5-599.2,1304-626.2c895.5-51.6,1764.1,626.2,1952.6,1519.4c44.9,206.5,42.6,583.5-2.3,801.2c-76.3,372.5-251.4,713.7-505,980.8l-152.6,161.6l-6.7,2679.7l-6.7,2679.7l-60.6,154.9c-150.4,386-480.3,689-859.6,790C3434.1,5025,3151.3,5018.3,2987.5,4966.7z M3640.6,4475.2c141.4-62.8,244.6-161.6,320.9-305.2l60.6-112.2l6.7-2809.9l4.5-2809.9l110-78.5c251.4-184,489.3-511.7,561.1-765.3c110-390.5,51.6-850.6-157.1-1218.7c-105.5-184-359.1-426.4-547.6-525.2c-563.3-291.8-1247.9-193-1681,242.4c-343.4,343.4-509.5,902.2-408.5,1380.3c69.6,320.9,267.1,632.9,531.9,834.9l152.6,116.7l2.3,2682c0,1474.5,6.7,2735.8,13.5,2803.2c24.7,285,202,509.5,469.1,594.8C3236.6,4553.7,3494.7,4540.3,3640.6,4475.2z"/><path d="M3234.4,929.1c-26.9-11.2-69.6-49.4-96.5-83c-47.1-60.6-47.1-65.1-47.1-1425.2v-1364.6l-150.4-74.1c-199.7-96.5-383.8-280.5-480.3-480.3c-71.8-143.6-76.3-168.3-76.3-379.3c0-206.5,6.7-235.7,71.8-377.1c96.5-204.2,289.5-397.3,493.8-493.8c141.4-65.1,170.6-71.8,377-71.8c208.7,0,235.7,4.5,377,74.1c163.8,80.8,334.4,233.4,426.4,379.3c244.6,386,177.3,841.6-170.6,1167.1c-83,76.3-195.3,154.8-269.3,186.3l-125.7,56.1l-6.7,1384.8l-6.7,1387l-58.3,56.1C3431.9,933.6,3308.4,960.5,3234.4,929.1z M3454.3-2419.5c296.3-62.8,435.4-417.4,285-720.4c-125.7-249.1-552.1-298.5-763.1-87.5c-206.5,206.5-163.8,632.9,76.3,758.6C3194-2397,3288.2-2383.5,3454.3-2419.5z"/><path d="M6120.6,4771.4c-71.9-26.9-143.7-116.7-285.1-350.1C5546,3941,5442.8,3656,5492.2,3467.5c114.5-460.1,579-716,969.5-538.6c336.7,154.9,516.2,527.4,410.7,852.9c-85.3,258.1-439.9,886.5-536.4,949.4C6277.7,4769.2,6167.7,4791.6,6120.6,4771.4z M6333.8,3853.5c121.2-235.7,130.1-361.3,33.7-457.9c-69.6-69.6-276.1-62.8-347.9,11.2c-101,98.7-56.1,314.2,127.9,612.7c42.7,71.8,47.1,71.8,76.3,31.4C6239.5,4026.3,6288.9,3938.8,6333.8,3853.5z"/><path d="M7729.8,3530.3c-121.2-94.3-471.3-722.7-543.1-976.3c-49.4-163.8-33.7-303,44.9-460.1c74-145.9,202-273.8,352.3-352.4c98.8-51.6,148.1-60.6,287.3-60.6c139.1,0,188.5,9,287.3,60.6c226.7,119,397.3,350.1,424.2,574.6c22.5,190.8-107.7,516.2-388.2,969.6c-143.6,233.4-208.7,289.5-323.2,289.5C7821.8,3575.2,7763.5,3557.2,7729.8,3530.3z M8001.3,2666.2c150.4-298.5,136.9-457.8-42.6-505c-143.6-40.4-267.1,9-309.7,121.2c-29.2,78.5-29.2,98.7,6.7,202c56.1,157.1,193,399.5,222.2,388.3C7889.1,2870.5,7945.2,2776.2,8001.3,2666.2z"/></g></g>
</svg>