<svg xmlns="http://www.w3.org/2000/svg" viewBox="0 0 1501.09 1454.18"><rect x="145.43" y="1123.62" width="1119.69" height="314.65" fill="#36a9e1"/><path d="M1416.83,1214s0-39.5-31.84-37.79H251.14C210,1178,211.73,1214,211.73,1214" transform="translate(-109 -98.91)" fill="none" stroke="#1d1d1b" stroke-miterlimit="10" stroke-width="11"/><rect x="138.34" y="1108.52" width="1133.86" height="340.16" fill="none" stroke="#1d1d1b" stroke-miterlimit="10" stroke-width="11"/><path d="M405.48,1454.63V1022.44c-9.55-56.19,47.2-50.94,47.2-50.94" transform="translate(-109 -98.91)" fill="none" stroke="#1d1d1b" stroke-miterlimit="10" stroke-width="16"/><path d="M933.21,1454.63V1022.44c-9.54-56.19,47.21-50.94,47.21-50.94" transform="translate(-109 -98.91)" fill="none" stroke="#1d1d1b" stroke-miterlimit="10" stroke-width="16"/><text transform="translate(1124.22 1226.69) scale(0.67 1)" font-size="90" fill="#683c11" font-family="AgencyFB-Bold, Agency FB" font-weight="700">100 %</text><circle cx="1354.13" cy="1379.59" r="36.12" fill="#3aaa35" stroke="#1d1d1b" stroke-miterlimit="10" stroke-width="11"/><line x1="1318" y1="1379.59" x2="1275.71" y2="1379.59" fill="#3aaa35" stroke="#1d1d1b" stroke-miterlimit="10" stroke-width="11"/><circle cx="645.2" cy="763.5" r="36.12" fill="#3aaa35" stroke="#1d1d1b" stroke-miterlimit="10" stroke-width="11"/><line x1="609.08" y1="763.5" x2="566.78" y2="763.5" fill="#3aaa35" stroke="#1d1d1b" stroke-miterlimit="10" stroke-width="11"/><circle cx="1192.83" cy="763.5" r="36.12" fill="#3aaa35" stroke="#1d1d1b" stroke-miterlimit="10" stroke-width="11"/><line x1="1156.7" y1="763.5" x2="1114.41" y2="763.5" fill="#3aaa35" stroke="#1d1d1b" stroke-miterlimit="10" stroke-width="11"/><text transform="translate(1293.83 369.45)" font-size="81" fill="#2d2e83" font-family="AgencyFB-Bold, Agency FB" font-weight="700">50<tspan x="74.59" y="0" font-size="80">,3 </tspan><tspan x="142.6" y="0">%</tspan></text><text transform="translate(1292.48 468.18) scale(0.98 1)" font-size="80" fill="#be1622" font-family="AgencyFB-Bold, Agency FB" font-weight="700">27,6 </text><circle cx="1444.86" cy="418.82" r="11.13" fill="#fff" stroke="#be1622" stroke-miterlimit="10" stroke-width="5"/><text transform="translate(1463.83 468.18)" font-size="80" fill="#be1622" font-family="AgencyFB-Bold, Agency FB" font-weight="700">C</text><path d="M457.68,391.3c-17.18,6.24-35,24.2-43.48,44.16-5.22,12.22-6.09,17.21-6.09,35.42,0,17.72.87,23.45,5.65,34.93,5.65,13.73,17,28.95,27.18,36.68l5.44,4-6.09,4.24c-9.13,6.23-22.39,24.2-27.61,37.17-6.52,16.72-6.52,49.15.44,66.11,7.39,18.71,18.26,32.19,33.48,41.66,12.83,8,15,8.48,33.27,8.48,22.61,0,33.92-4.74,48.7-20l8.91-9.22V827.64H474.86c-47,0-63.49.75-66.32,3.24-3.26,2.75-3.7,7-3.26,32.93l.65,29.93,8.26.75c4.35.5,8.05,1,8.05,1.5,0,.25,5.43,30.69,12,67.35s12,67.11,12,67.61-2.61,1.25-5.87,1.75c-4.35.5-6.3,2.25-6.74,6.49-.87,6,6.52,30.43,11.75,39.66l3,5.74H644l3-5.74c5.22-9.23,12.62-33.68,11.74-39.66-.43-4.24-2.39-6-6.52-6.49-3.48-.5-6.08-1.24-6.08-1.75,0-1,18.48-104.53,21.74-122.74,2.39-12.48,2.82-13,10.43-13.73l8-.74.65-29.94c.43-25.94,0-30.18-3.26-32.93-2.83-2.49-19.35-3.24-66.32-3.24H554.87V674.46l8.26,9c13.48,15.22,26.52,20.7,49.35,20.7,17.18,0,20.88-1,31.1-7,15.22-9.24,27.82-24.2,35-41.41,7.39-18.47,7.83-49.9.66-68.11-5-13-18-30.43-27.19-36.92L646,546.48l8.47-7.23c20.88-17.72,29.79-37.93,29.79-68.36,0-25.69-4.56-38.67-19.78-57.38-19.79-24.2-46.53-32.43-74.79-22.7-13.27,4.74-17.62,7.73-28.27,19.71-6.74,7.73-13,16-13.92,18-1.09,3-1.52,3.24-2.61.25-2.61-6.48-17.17-23.45-25-29.19-10.21-7.23-28.7-13.48-39.79-13.23C475.07,386.31,465.08,388.56,457.68,391.3Z" transform="translate(-109 -98.91)" fill="#010101"/><path d="M502.69,411.26c13.05,6.73,23.26,18.46,29.57,33.43,6.52,15.47,7,31.18,1.31,31.18-2.18,0-8.92,2.75-14.57,6.24l-10.66,6L496,474.62c-13.7-15-13.49-15-19.57-11.23-6.74,4.24-4.78,10.23,7.82,24.94l12,13.73-5.43,12.23c-3,6.73-5.43,14.47-5.43,17,0,3.49-1.74,4.49-8.05,4.49-43.27-.75-67.62-60.12-42.62-103C448.55,409.26,479.86,399.29,502.69,411.26Z" transform="translate(-109 -98.91)" fill="#fff"/><path d="M636.4,412.26c33.27,18.46,42,69.6,17.62,102.78-7.83,10.72-25.88,20.71-37.62,20.71-7.61,0-9.34-.75-9.34-4.49,0-2.5-2.39-10.23-5.44-17l-5.43-12.22,12-13.73c12.61-14.72,14.57-20.7,7.83-24.94-6.09-3.74-5.87-3.74-19.57,11.23L584,488.1l-10.66-6c-5.65-3.49-12.39-6.23-14.57-6.23-10.21,0-.65-36.18,13.7-51.65,12.18-13,24.79-18.46,41.09-17.46C621.62,407.27,631.41,409.51,636.4,412.26Z" transform="translate(-109 -98.91)" fill="#fff"/><path d="M559.87,496.08c10.66,3.24,22.83,15.72,27.84,28.44,13.48,33.68-9.14,73.6-41.53,73.6s-55-40.17-41.53-73.6C514.43,500.08,536.61,488.6,559.87,496.08Z" transform="translate(-109 -98.91)" fill="#ffed00"/><path d="M485.3,560.7c0,3,2.39,10.48,5.21,17.22l5.44,12-10.88,12.23c-12,13.47-14.35,19.46-10.65,24.7,4.56,6.48,9.57,4.24,21.74-10,11.52-13.47,11.74-13.72,17.17-9.48a59.28,59.28,0,0,0,14.36,7c10,3.49,11.52,8.48,7.6,24.69-6.74,27.94-28.48,46.41-54.35,46.41-39.57,0-65.45-41.17-53.93-85.32,5.87-23,29.79-43.66,51.32-44.16C484,555.71,485.3,556.7,485.3,560.7Z" transform="translate(-109 -98.91)" fill="#fff"/><path d="M637.06,563c11.09,6.48,25,24.69,28.26,37.17,11.53,44.15-14.35,85.32-53.92,85.32C586.18,685.44,566,669,557.92,642c-5.44-17.71-3.7-23.7,7.6-28.2,5.44-2,11.74-5.23,14.35-7.23,4.13-3.24,5.44-2.49,16.31,10.23,12.18,14.23,17.18,16.47,21.74,10,3.7-5.24,1.31-11.23-10.65-24.7l-10.65-12,5.21-13c2.83-7,5.22-15,5.22-17.46,0-4.24,1.3-4.49,10.66-3.25A62.16,62.16,0,0,1,637.06,563Z" transform="translate(-109 -98.91)" fill="#fff"/><polygon points="563.28 762.41 563.28 776.13 437.17 776.13 311.06 776.13 311.06 762.41 311.06 748.68 437.17 748.68 563.28 748.68 563.28 762.41" fill="#e94e1b"/><path d="M652.71,896.49c0,1.5-21.52,122-23.26,130l-1.09,5.74H463.77L460.51,1014c-5.87-30.94-20.88-115.26-20.88-117.26,0-1,48.06-1.74,106.54-1.74C604.88,895,652.71,895.74,652.71,896.49Z" transform="translate(-109 -98.91)" fill="#f39200"/><polygon points="528.05 959.5 525.66 965.73 437.17 965.73 348.68 965.73 346.29 959.5 343.68 953.26 437.17 953.26 530.66 953.26 528.05 959.5" fill="#010101"/><path d="M446.38,728.85c-4.57,6.23-1.74,31.68,5.21,47.64,10.23,24.45,29.79,39.17,56.53,42.66,14.79,2,17.4-1.49,15.66-21.2-3-38.67-27.18-66.36-62.62-71.35C451.59,725.35,448.55,725.6,446.38,728.85Z" transform="translate(-109 -98.91)" fill="#010101"/><path d="M480.94,753c13.92,8,26.09,27.7,26.09,42.17,0,4.24-.87,4.73-5.87,3.49C480.07,793,461.37,770,461.37,750.29c0-4.24.87-4.73,6.09-3.49A74,74,0,0,1,480.94,753Z" transform="translate(-109 -98.91)" fill="#063"/><path d="M623.14,727.85c-31.3,7.23-55.23,39.67-55.23,74.59,0,15.72,3.26,19,17,16.71,36.31-5.48,59.79-32.17,62.84-71.1C649.45,725.6,646,722.6,623.14,727.85Z" transform="translate(-109 -98.91)" fill="#1d1d1b" stroke="#1d1d1b" stroke-miterlimit="10"/><path d="M631,750.3c0,19.71-18.7,42.66-39.57,48.4-5.22,1.25-6.09.75-6.09-3.49,0-18.71,17-40.66,37-47.65C630.54,744.81,631,744.81,631,750.3Z" transform="translate(-109 -98.91)" fill="#008d36" stroke="#1d1d1b" stroke-miterlimit="10"/><path d="M993.89,391.3c-17.18,6.24-35,24.2-43.48,44.16-5.22,12.22-6.09,17.21-6.09,35.42,0,17.72.87,23.45,5.65,34.93,5.65,13.73,17,28.95,27.18,36.68l5.44,4-6.09,4.24c-9.13,6.23-22.39,24.2-27.61,37.17-6.52,16.72-6.52,49.15.44,66.11,7.39,18.71,18.26,32.19,33.48,41.66,12.83,8,15,8.48,33.27,8.48,22.61,0,33.92-4.74,48.7-20l8.91-9.22V827.64h-62.62c-47,0-63.5.75-66.32,3.24-3.26,2.75-3.7,7-3.26,32.93l.65,29.93,8.26.75c4.35.5,8.05,1,8.05,1.5,0,.25,5.43,30.69,12,67.35s12,67.11,12,67.61-2.61,1.25-5.87,1.75c-4.35.5-6.3,2.25-6.74,6.49-.87,6,6.52,30.43,11.75,39.66l3,5.74h195.67l3-5.74c5.22-9.23,12.62-33.68,11.74-39.66-.43-4.24-2.39-6-6.52-6.49-3.48-.5-6.08-1.24-6.08-1.75,0-1,18.48-104.53,21.74-122.74,2.39-12.48,2.82-13,10.43-13.73l8-.74.65-29.94c.43-25.94,0-30.18-3.26-32.93-2.83-2.49-19.35-3.24-66.32-3.24h-62.61V674.46l8.26,9c13.48,15.22,26.52,20.7,49.35,20.7,17.18,0,20.88-1,31.1-7,15.22-9.24,27.82-24.2,35-41.41,7.39-18.47,7.83-49.9.66-68.11-5-13-18-30.43-27.19-36.92l-6.08-4.24,8.47-7.23c20.88-17.72,29.79-37.93,29.79-68.36,0-25.69-4.56-38.67-19.78-57.38-19.79-24.2-46.53-32.43-74.79-22.7-13.27,4.74-17.62,7.73-28.27,19.71-6.74,7.73-13,16-13.92,18-1.09,3-1.52,3.24-2.61.25-2.61-6.48-17.17-23.45-25-29.19-10.22-7.23-28.7-13.48-39.79-13.23C1011.28,386.31,1001.29,388.56,993.89,391.3Z" transform="translate(-109 -98.91)" fill="#010101"/><path d="M1038.9,411.26c13,6.73,23.26,18.46,29.57,33.43,6.52,15.47,7,31.18,1.31,31.18-2.18,0-8.92,2.75-14.57,6.24l-10.66,6-12.39-13.47c-13.7-15-13.49-15-19.57-11.23-6.74,4.24-4.78,10.23,7.82,24.94l12,13.73-5.43,12.23c-3,6.73-5.43,14.47-5.43,17,0,3.49-1.74,4.49-8,4.49-43.27-.75-67.62-60.12-42.62-103C984.76,409.26,1016.07,399.29,1038.9,411.26Z" transform="translate(-109 -98.91)" fill="#fff"/><path d="M1172.61,412.26c33.27,18.46,42,69.6,17.62,102.78-7.83,10.72-25.88,20.71-37.62,20.71-7.61,0-9.34-.75-9.34-4.49,0-2.5-2.4-10.23-5.44-17l-5.43-12.22,12-13.73c12.61-14.72,14.57-20.7,7.83-24.94-6.09-3.74-5.87-3.74-19.57,11.23l-12.39,13.47-10.66-6c-5.65-3.49-12.4-6.23-14.57-6.23-10.21,0-.65-36.18,13.7-51.65,12.18-13,24.78-18.46,41.09-17.46C1157.83,407.27,1167.62,409.51,1172.61,412.26Z" transform="translate(-109 -98.91)" fill="#fff"/><path d="M1096.08,496.08c10.66,3.24,22.83,15.72,27.84,28.44,13.48,33.68-9.14,73.6-41.53,73.6s-55-40.17-41.53-73.6C1050.64,500.08,1072.82,488.6,1096.08,496.08Z" transform="translate(-109 -98.91)" fill="#ffed00"/><path d="M1021.51,560.7c0,3,2.39,10.48,5.21,17.22l5.44,12-10.88,12.23c-12,13.47-14.35,19.46-10.65,24.7,4.56,6.48,9.57,4.24,21.74-10,11.52-13.47,11.74-13.72,17.17-9.48a59.28,59.28,0,0,0,14.36,7c10,3.49,11.52,8.48,7.6,24.69-6.74,27.94-28.48,46.41-54.35,46.41-39.57,0-65.45-41.17-53.93-85.32,5.87-23,29.79-43.66,51.32-44.16C1020.2,555.71,1021.51,556.7,1021.51,560.7Z" transform="translate(-109 -98.91)" fill="#fff"/><path d="M1173.27,563c11.09,6.48,25,24.69,28.26,37.17,11.53,44.15-14.35,85.32-53.92,85.32-25.22,0-45.44-16.47-53.48-43.41-5.44-17.71-3.7-23.7,7.6-28.2,5.44-2,11.74-5.23,14.35-7.23,4.13-3.24,5.44-2.49,16.31,10.23,12.18,14.23,17.18,16.47,21.74,10,3.7-5.24,1.31-11.23-10.65-24.7l-10.65-12,5.21-13c2.83-7,5.22-15,5.22-17.46,0-4.24,1.3-4.49,10.66-3.25A62.25,62.25,0,0,1,1173.27,563Z" transform="translate(-109 -98.91)" fill="#fff"/><polygon points="1099.49 762.41 1099.49 776.13 973.38 776.13 847.27 776.13 847.27 762.41 847.27 748.68 973.38 748.68 1099.49 748.68 1099.49 762.41" fill="#063"/><path d="M1188.92,896.49c0,1.5-21.52,122-23.26,130l-1.09,5.74H1000L996.71,1014c-5.86-30.94-20.87-115.26-20.87-117.26,0-1,48.06-1.74,106.54-1.74C1141.09,895,1188.92,895.74,1188.92,896.49Z" transform="translate(-109 -98.91)" fill="#009640"/><polygon points="1064.26 959.5 1061.87 965.73 973.38 965.73 884.88 965.73 882.49 959.5 879.89 953.26 973.38 953.26 1066.87 953.26 1064.26 959.5" fill="#010101"/><path d="M982.59,728.85c-4.57,6.23-1.74,31.68,5.21,47.64,10.23,24.45,29.79,39.17,56.53,42.66,14.79,2,17.4-1.49,15.66-21.2-3-38.67-27.18-66.36-62.62-71.35C987.8,725.35,984.76,725.6,982.59,728.85Z" transform="translate(-109 -98.91)" fill="#010101"/><path d="M1017.15,753c13.92,8,26.09,27.7,26.09,42.17,0,4.24-.87,4.73-5.87,3.49-21.09-5.74-39.79-28.69-39.79-48.41,0-4.24.87-4.73,6.09-3.49A74,74,0,0,1,1017.15,753Z" transform="translate(-109 -98.91)" fill="#063"/><path d="M1159.35,727.85c-31.31,7.23-55.23,39.67-55.23,74.59,0,15.72,3.26,19,17,16.71,36.31-5.48,59.79-32.17,62.84-71.1C1185.66,725.6,1182.18,722.6,1159.35,727.85Z" transform="translate(-109 -98.91)" fill="#010101"/><path d="M1167.18,750.3c0,19.71-18.7,42.66-39.57,48.4-5.22,1.25-6.09.75-6.09-3.49,0-18.71,17-40.66,37-47.65C1166.75,744.81,1167.18,744.81,1167.18,750.3Z" transform="translate(-109 -98.91)" fill="#063"/><path d="M211.72,300.83c-132.3-2.41-132.28-196,0-198.42C344,104.82,344,298.44,211.72,300.83Z" transform="translate(-109 -98.91)" fill="#fff" stroke="#1d1d1b" stroke-miterlimit="10" stroke-width="7"/><path d="M193.84,284c31.8,11.21,56.59-21,42.63-51.59-3-6.79-10-17.94-18.19-17.94-9.36,0-9.15,20.25-17.63,24.68C180.27,249.79,174.15,276.09,193.84,284Z" transform="translate(-109 -98.91)" fill="#27348b" stroke="#1d1d1b" stroke-miterlimit="10" stroke-width="7"/><path d="M172.82,191.15c-32.36-48.79-71.8,9.39-29.58,35.34,9.34,5.48,25.84,4.59,36.39,0,6.88-3,18.19-9.88,18.19-17.93C197.82,199.29,177.31,199.49,172.82,191.15Z" transform="translate(-109 -98.91)" fill="#27348b" stroke="#1d1d1b" stroke-miterlimit="10" stroke-width="7"/><path d="M228.26,118.83c-31.8-11.22-56.59,21-42.63,51.59,3,6.78,10,17.94,18.18,17.94,9.36,0,9.16-20.25,17.64-24.68C241.81,153,247.93,126.71,228.26,118.83Z" transform="translate(-109 -98.91)" fill="#27348b" stroke="#1d1d1b" stroke-miterlimit="10" stroke-width="7"/><path d="M278.84,176.31c-15.38-8.32-49.11-3.05-54.58,17.94,0,9.23,20.52,9,25,17.39C281.65,260.43,321.06,202.26,278.84,176.31Z" transform="translate(-109 -98.91)" fill="#27348b" stroke="#1d1d1b" stroke-miterlimit="10" stroke-width="7"/><path d="M372.4,1401c-.54-25.25-34.62-16.16-50.32-17.71A17.7,17.7,0,0,0,304.49,1401v75.44H372.4Z" transform="translate(-109 -98.91)" fill="#e94e1b"/><polygon points="311.85 1386.28 311.85 1355.72 278.47 1355.72 278.47 1386.28 183.34 1386.28 183.34 1422.98 335.15 1422.98 335.15 1386.28 311.85 1386.28" fill="#e94e1b"/><path d="M898.49,1403.05c-.54-25.24-34.62-16.15-50.32-17.71a17.71,17.71,0,0,0-17.6,17.71v75.45h67.92Z" transform="translate(-109 -98.91)" fill="#063"/><polygon points="837.94 1388.31 837.94 1357.76 804.55 1357.76 804.55 1388.31 709.42 1388.31 709.42 1425.01 861.24 1425.01 861.24 1388.31 837.94 1388.31" fill="#063"/><path d="M1487.15,162.23c-34.86,0-63.21,23.5-63.21,52.35s28.37,52.34,63.21,52.34,63.22-23.47,63.22-52.34S1522,162.23,1487.15,162.23Zm0,89.75c-24.94,0-45.17-16.74-45.17-37.4s20.23-37.4,45.17-37.4,45.18,16.74,45.18,37.4S1512.1,252,1487.15,252Zm0-104.71c5,0,9-3.35,9-7.48v-15c0-4.13-4-7.48-9-7.48s-9,3.35-9,7.48v15C1478.12,143.92,1482.17,147.27,1487.15,147.27Zm0,134.62c-5,0-9,3.35-9,7.48v15c0,4.12,4.05,7.48,9,7.48s9-3.36,9-7.48v-15C1496.19,285.24,1492.14,281.89,1487.15,281.89ZM1557.39,167l12.77-10.58a6.61,6.61,0,0,0,0-10.58,10.43,10.43,0,0,0-12.77,0l-12.77,10.58a6.62,6.62,0,0,0,0,10.58A10.43,10.43,0,0,0,1557.39,167Zm-140.47,95.2-12.77,10.58a6.6,6.6,0,0,0,0,10.57,10.4,10.4,0,0,0,12.77,0l12.77-10.57a6.62,6.62,0,0,0,0-10.58A10.39,10.39,0,0,0,1416.92,262.18Zm-11.05-47.6c0-4.13-4-7.48-9-7.48h-18.07c-5,0-9,3.35-9,7.48s4,7.48,9,7.48h18.07C1401.82,222.06,1405.87,218.71,1405.87,214.58Zm189.67-7.48h-18.07c-5,0-9,3.35-9,7.48s4,7.48,9,7.48h18.07c5,0,9-3.35,9-7.48S1600.53,207.1,1595.54,207.1ZM1416.89,167a10.45,10.45,0,0,0,12.78,0,6.62,6.62,0,0,0,0-10.58l-12.78-10.58a10.43,10.43,0,0,0-12.77,0,6.62,6.62,0,0,0,0,10.58L1416.89,167Zm140.53,95.18a10.45,10.45,0,0,0-12.78,0,6.61,6.61,0,0,0,0,10.58l12.78,10.57a10.4,10.4,0,0,0,12.77,0,6.61,6.61,0,0,0,0-10.57Z" transform="translate(-109 -98.91)" fill="#ffed00"/><path d="M1387.12,244q11.73,23.7,35.36,37.89a100.78,100.78,0,0,0,88.73,7.07,97.49,97.49,0,0,0,30.56-19.14,90.45,90.45,0,0,0,20.45-28.6,82.51,82.51,0,0,0,7.6-34.77,83.63,83.63,0,0,0-7.17-34.13,88.62,88.62,0,0,0-19.46-28.21,95.41,95.41,0,0,0-29.36-19.2,101,101,0,0,0-36.16-8q-5.48-.21-7.6,4.55t1.88,8.41A62.51,62.51,0,0,1,1488.36,151a60.32,60.32,0,0,1-3.44,57.37,65.69,65.69,0,0,1-24.69,23.11,69.79,69.79,0,0,1-34.06,8.52,70.68,70.68,0,0,1-28.44-6,7.84,7.84,0,0,0-9,1.52,7.07,7.07,0,0,0-2.18,4A6.78,6.78,0,0,0,1387.12,244Zm25.32,10a90.23,90.23,0,0,0,13.71,1,86.7,86.7,0,0,0,42-10.51,80.36,80.36,0,0,0,30.55-28.6,73.92,73.92,0,0,0-1.74-81,78.33,78.33,0,0,1,41,26.73,69.39,69.39,0,0,1,15.9,44.81,68.64,68.64,0,0,1-6.37,29,75.43,75.43,0,0,1-17,23.8A83.71,83.71,0,0,1,1474,281.1a82.93,82.93,0,0,1-34.11-7.18A79,79,0,0,1,1412.44,253.94Z" transform="translate(-109 -98.91)" fill="#29235c"/><text transform="translate(391.68 887.78) scale(0.76 1)" font-size="67" fill="#312783" font-family="ComicSansMS, Comic Sans MS">900</text><text transform="translate(927.89 887.78) scale(0.76 1)" font-size="67" fill="#f9b233" font-family="ComicSansMS, Comic Sans MS">900</text></svg>