<?xml version="1.0" encoding="utf-8"?>
<!-- Svg Vector Icons : http://www.onlinewebfonts.com/icon -->
<!DOCTYPE svg PUBLIC "-//W3C//DTD SVG 1.1//EN" "http://www.w3.org/Graphics/SVG/1.1/DTD/svg11.dtd">
<svg version="1.1" xmlns="http://www.w3.org/2000/svg" xmlns:xlink="http://www.w3.org/1999/xlink" x="0px" y="0px" viewBox="0 0 1000 1000" enable-background="new 0 0 1000 1000" xml:space="preserve">
<metadata> Svg Vector Icons : http://www.onlinewebfonts.com/icon </metadata>
<g><path d="M856.4,51.6v0.8c0,23-19.7,41.6-43.9,41.6H261.1c-16.9,0-30.5,13-30.5,29v753.5c0,16,13.7,29,30.5,29h551.4c24.2,0,43.9,18.6,43.9,41.6v1.2c0,23-19.7,41.6-43.9,41.6H209.1c-36.2,0-65.5-27.8-65.5-62.1V72.1c0-34.3,29.3-62.1,65.5-62.1h603.4C836.7,10,856.4,28.6,856.4,51.6z M628.6,301.3v73c0,17.9,13.6,32.5,30.3,32.5h165c17.9,0,32.4,15.6,32.4,34.8v115.8c0,19.2-14.5,34.8-32.4,34.8h-165c-16.7,0-30.3,14.6-30.3,32.6v74c0,20.3-22.1,31.4-36.6,18.4L377.2,524.9c-14.5-12.9-14.5-36.8,0-49.8L592,282.9C606.5,269.9,628.6,281,628.6,301.3z"/></g>
</svg>