<?xml version="1.0" encoding="utf-8"?>
<!-- Svg Vector Icons : http://www.onlinewebfonts.com/icon -->
<!DOCTYPE svg PUBLIC "-//W3C//DTD SVG 1.1//EN" "http://www.w3.org/Graphics/SVG/1.1/DTD/svg11.dtd">
<svg version="1.1" xmlns="http://www.w3.org/2000/svg" xmlns:xlink="http://www.w3.org/1999/xlink" x="0px" y="0px" viewBox="0 0 1000 1000" enable-background="new 0 0 1000 1000" xml:space="preserve">
<metadata> Svg Vector Icons : http://www.onlinewebfonts.com/icon </metadata>
<g><path d="M959.4,249.9c-1.3-6.1-2.3-12.3-2.3-18.1c0,0-113.4-2.9-186.9-31.1c-42-16-74.9-51.1-74.9-51.1c0-26.4-21.9-47.8-49-47.8h-294c-27.1,0-49,21.4-49,47.8c0,0-30.9,34.4-70.8,50c-72.4,28.2-192.6,32.2-192.6,32.2c0,6.3-1.4,13.1-3.1,19.8c-15.9,7.9-26.8,24-26.8,42.6v556.1c0,26.4,21.9,47.8,49,47.8h882c27.1,0,49-21.4,49-47.8V294.2C990,274.1,977.3,257,959.4,249.9z M499.2,777c-135.3,0-245-107-245-238.9c0-131.9,109.7-238.9,245-238.9c135.3,0,245,107,245,238.9C744.3,670,634.6,777,499.2,777z M499.2,394.8c-81.2,0-147,64.2-147,143.3c0,79.2,65.8,143.3,147,143.3c81.2,0,147-64.2,147-143.3C646.3,459,580.4,394.8,499.2,394.8z"/></g>
</svg>