<svg xmlns="http://www.w3.org/2000/svg" width="612" height="574" viewBox="0 0 612 574">
  <defs>
    <style>
      .cls-1 {
        fill-rule: evenodd;
      }
    </style>
  </defs>
  <path id="Forma_1" data-name="Forma 1" class="cls-1" d="M599.859,94.093H571.416V89.717a12.64,12.64,0,0,0-12.641-12.641H493.467a12.639,12.639,0,0,0-12.641,12.641v4.375H378.018L351.25,25.925l2.379-.934a12.64,12.64,0,1,0-9.241-23.53l-148.4,58.29a12.641,12.641,0,1,0,9.241,23.532l2.375-.934,5.249,13.364C93.481,109.541.5,211.237,0.5,334.255c0,132.426,107.737,240.162,240.162,240.162S480.824,466.681,480.824,334.255a237.7,237.7,0,0,0-17.787-90.9h17.789v4.367a12.639,12.639,0,0,0,12.641,12.64h65.308a12.639,12.639,0,0,0,12.641-12.64v-4.367h28.443A12.64,12.64,0,0,0,612.5,230.712V106.733A12.64,12.64,0,0,0,599.859,94.093ZM231.135,73.1l96.586-37.937,23.138,58.925h-110.2c-0.427,0-.851.014-1.278,0.017Zm9.527,144.961h0a116.386,116.386,0,1,0,72.232,25.282H435.41a212.482,212.482,0,0,1,20.133,90.909c0,118.485-96.4,214.881-214.881,214.881s-214.88-96.4-214.88-214.882,96.4-214.881,214.88-214.881H480.826v98.7Zm27,116.19a27,27,0,1,1-27-27A27.026,27.026,0,0,1,267.659,334.255ZM253.3,283.531V244.246a90.046,90.046,0,0,1,21.414,5.745l-19.644,34.022C254.486,283.844,253.9,283.679,253.3,283.531Zm-25.282,0c-0.595.149-1.184,0.313-1.77,0.482l-19.642-34.022a90.08,90.08,0,0,1,21.414-5.745v39.285h0Zm-43.286-20.864,19.637,34.012c-0.437.422-.864,0.85-1.287,1.287l-34.012-19.637A91.674,91.674,0,0,1,184.735,262.667ZM156.4,300.2l34.024,19.644c-0.169.586-.333,1.173-0.482,1.768H150.654A90.1,90.1,0,0,1,156.4,300.2ZM189.94,346.9c0.149,0.594.313,1.182,0.482,1.769L156.4,368.308a90.213,90.213,0,0,1-5.744-21.413H189.94Zm13.146,23.65q0.633,0.656,1.286,1.285l-19.637,34.013a91.765,91.765,0,0,1-15.661-15.66Zm23.165,13.95c0.588,0.169,1.175.334,1.77,0.481v39.286a90.1,90.1,0,0,1-21.412-5.744Zm27.052,0.483c0.594-.147,1.183-0.313,1.768-0.482l19.644,34.022a90.019,90.019,0,0,1-21.412,5.746V384.978h0Zm43.286,20.865-19.636-34.011q0.653-.633,1.286-1.287l34.013,19.637A91.674,91.674,0,0,1,296.589,405.843Zm28.337-37.534L290.9,348.667c0.168-.587.334-1.175,0.482-1.77h39.285A90.137,90.137,0,0,1,324.926,368.309Zm-33.54-46.7c-0.148-.6-0.314-1.182-0.482-1.77L324.926,300.2a90.1,90.1,0,0,1,5.745,21.412H291.386Zm-13.147-23.65q-0.632-.656-1.286-1.286l19.636-34.011a91.621,91.621,0,0,1,15.661,15.66Zm267.9-62.885H506.107V102.358h40.027V235.079Zm41.085-17.008h-15.8v-98.7h15.8v98.7Z"/>
</svg>
