<?xml version="1.0" encoding="utf-8"?>
<!-- Generator: Adobe Illustrator 24.1.2, SVG Export Plug-In . SVG Version: 6.00 Build 0)  -->
<svg version="1.1" id="Слой_1" xmlns="http://www.w3.org/2000/svg" xmlns:xlink="http://www.w3.org/1999/xlink" x="0px" y="0px"
	 viewBox="0 0 612 574" style="enable-background:new 0 0 612 574;" xml:space="preserve">
<style type="text/css">
	.st0{fill-rule:evenodd;clip-rule:evenodd;}
	.st1{fill-rule:evenodd;clip-rule:evenodd;fill:#25F54F;}
	.st2{fill-rule:evenodd;clip-rule:evenodd;fill:#00F439;}
	.st3{fill-rule:evenodd;clip-rule:evenodd;fill:#FFFFFF;}
	.st4{fill-rule:evenodd;clip-rule:evenodd;fill:#FCFCFC;}
</style>
<path class="st0" d="M599.9,94.1h-28.4v-4.4c0-7-5.7-12.6-12.6-12.6c0,0,0,0,0,0h-65.3c-7,0-12.6,5.7-12.6,12.6c0,0,0,0,0,0v4.4H378
	l-26.8-68.2l2.4-0.9c6.5-2.5,9.8-9.8,7.2-16.3s-9.8-9.8-16.3-7.2c0,0-0.1,0-0.1,0.1L196,59.8c-6.5,2.5-9.8,9.8-7.3,16.3
	c2.5,6.5,9.8,9.8,16.3,7.3c0.1,0,0.1,0,0.2-0.1l2.4-0.9l5.2,13.4C93.5,109.5,0.5,211.2,0.5,334.3c0,132.4,107.7,240.2,240.2,240.2
	s240.2-107.7,240.2-240.2c0.1-31.2-6-62.1-17.8-90.9h17.8v4.4c0,7,5.7,12.6,12.6,12.6c0,0,0,0,0,0h65.3c7,0,12.6-5.7,12.6-12.6
	c0,0,0,0,0,0v-4.4h28.4c7,0,12.6-5.7,12.6-12.6c0,0,0,0,0,0v-124C612.5,99.8,606.8,94.1,599.9,94.1
	C599.9,94.1,599.9,94.1,599.9,94.1z"/>
<path class="st1" d="M231.1,73.1l96.6-37.9l23.1,58.9H240.7c-0.4,0-0.9,0-1.3,0L231.1,73.1z"/>
<path class="st2" d="M240.7,218.1L240.7,218.1C176.4,218,124.2,270,124.1,334.3S176,450.7,240.3,450.8s116.5-51.9,116.6-116.2
	c0.1-35.5-16.1-69.2-44-91.3h122.5c13.3,28.4,20.2,59.5,20.1,90.9c0,118.5-96.4,214.9-214.9,214.9S25.8,452.7,25.8,334.3
	s96.4-214.9,214.9-214.9h240.2v98.7L240.7,218.1z"/>
<path class="st3" d="M267.7,334.3c0,14.9-12.1,27-27,27s-27-12.1-27-27s12.1-27,27-27C255.6,307.3,267.6,319.3,267.7,334.3
	L267.7,334.3z"/>
<path class="st3" d="M253.3,283.5v-39.3c7.3,1,14.5,3,21.4,5.7l-19.6,34C254.5,283.8,253.9,283.7,253.3,283.5z"/>
<path class="st3" d="M228,283.5c-0.6,0.1-1.2,0.3-1.8,0.5l-19.6-34c6.9-2.8,14.1-4.7,21.4-5.7L228,283.5L228,283.5L228,283.5z"/>
<path class="st3" d="M184.7,262.7l19.6,34c-0.4,0.4-0.9,0.9-1.3,1.3l-34-19.6C173.6,272.5,178.9,267.2,184.7,262.7L184.7,262.7z"/>
<path class="st3" d="M156.4,300.2l34,19.6c-0.2,0.6-0.3,1.2-0.5,1.8h-39.3C151.7,314.3,153.6,307.1,156.4,300.2z"/>
<path class="st3" d="M189.9,346.9c0.1,0.6,0.3,1.2,0.5,1.8l-34,19.6c-2.8-6.9-4.7-14.1-5.7-21.4L189.9,346.9L189.9,346.9z"/>
<path class="st3" d="M203.1,370.6c0.4,0.4,0.9,0.9,1.3,1.3l-19.6,34c-5.8-4.6-11.1-9.8-15.7-15.7L203.1,370.6z"/>
<path class="st3" d="M226.3,384.5c0.6,0.2,1.2,0.3,1.8,0.5v39.3c-7.3-1-14.5-3-21.4-5.7L226.3,384.5z"/>
<path class="st3" d="M253.3,385c0.6-0.1,1.2-0.3,1.8-0.5l19.6,34c-6.9,2.8-14.1,4.7-21.4,5.7L253.3,385L253.3,385L253.3,385z"/>
<path class="st3" d="M296.6,405.8l-19.6-34c0.4-0.4,0.9-0.9,1.3-1.3l34,19.6C307.7,396,302.4,401.3,296.6,405.8L296.6,405.8z"/>
<path class="st3" d="M324.9,368.3l-34-19.6c0.2-0.6,0.3-1.2,0.5-1.8h39.3C329.6,354.2,327.7,361.4,324.9,368.3L324.9,368.3z"/>
<path class="st4" d="M291.4,321.6c-0.1-0.6-0.3-1.2-0.5-1.8l34-19.6c2.8,6.9,4.7,14.1,5.7,21.4L291.4,321.6L291.4,321.6z"/>
<path class="st3" d="M278.2,298c-0.4-0.4-0.9-0.9-1.3-1.3l19.6-34c5.8,4.6,11.1,9.8,15.7,15.7L278.2,298z"/>
<polygon class="st3" points="546.1,235.1 506.1,235.1 506.1,102.4 546.1,102.4 546.1,235.1 "/>
<rect x="571.4" y="119.4" class="st1" width="15.8" height="98.7"/>
</svg>
