<?xml version="1.0" encoding="utf-8"?>
<!-- Svg Vector Icons : http://www.onlinewebfonts.com/icon -->
<!DOCTYPE svg PUBLIC "-//W3C//DTD SVG 1.1//EN" "http://www.w3.org/Graphics/SVG/1.1/DTD/svg11.dtd">
<svg version="1.1" xmlns="http://www.w3.org/2000/svg" xmlns:xlink="http://www.w3.org/1999/xlink" x="0px" y="0px" viewBox="0 0 1000 1000" enable-background="new 0 0 1000 1000" xml:space="preserve">
<metadata> Svg Vector Icons : http://www.onlinewebfonts.com/icon </metadata>
<g><path d="M751.9,338.6c0,0.5-0.5,1-1.1,1H233.8c-0.6,0-1.1-0.4-1.1-1v-67.1c0-0.5,0.5-1,1.1-1h516.9c0.6,0,1.1,0.4,1.1,1V338.6z"/><path d="M751.9,526c0,0.6-0.5,1-1.1,1l-516.9,0c-0.6,0-1.1-0.5-1.1-1v-70.4c0-0.6,0.5-1,1.1-1h516.9c0.6,0,1.1,0.5,1.1,1V526z"/><path d="M746.4,706.6c0,0.6-0.5,1-1.1,1H228.3c-0.6,0-1.2-0.5-1.2-1v-69.3c0-0.6,0.5-1,1.2-1h516.9c0.6,0,1.1,0.5,1.1,1L746.4,706.6L746.4,706.6z"/><path d="M881.9,990H118.1c-39.6,0-71.9-32.3-71.9-71.9V84.9c0-39.6,32.2-71.9,71.9-71.9h169.1v63.3H118.1c-4.7,0-8.6,4-8.6,8.6v833.2c0,4.7,4,8.6,8.6,8.6h763.8c4.7,0,8.6-4,8.6-8.6V84.9c0-4.7-4-8.6-8.6-8.6H696.7V13h185.2c39.6,0,71.9,32.2,71.9,71.9v833.2C953.8,957.8,921.5,990,881.9,990z"/><path d="M639.2,56c0,12.7-10.4,23-23,23H370c-12.7,0-23-10.4-23-23V33c0-12.7,10.4-23,23-23h246.2c12.7,0,23,10.4,23,23V56z"/></g>
</svg>