<?xml version="1.0" encoding="utf-8"?>
<!-- Svg Vector Icons : http://www.onlinewebfonts.com/icon -->
<!DOCTYPE svg PUBLIC "-//W3C//DTD SVG 1.1//EN" "http://www.w3.org/Graphics/SVG/1.1/DTD/svg11.dtd">
<svg version="1.1" xmlns="http://www.w3.org/2000/svg" xmlns:xlink="http://www.w3.org/1999/xlink" x="0px" y="0px" viewBox="0 0 1000 1000" enable-background="new 0 0 1000 1000" xml:space="preserve">
<metadata> Svg Vector Icons : http://www.onlinewebfonts.com/icon </metadata>
<g><path d="M500,314.5c-102.7,0-186.3,83.2-186.3,185.5c0,102.3,83.6,185.5,186.3,185.5c102.8,0,186.3-83.2,186.3-185.5C686.3,397.7,602.7,314.5,500,314.5L500,314.5z M500,619.4c-66.2,0-120-53.6-120-119.4c0-65.9,53.8-119.4,120-119.4c66.2,0,120,53.6,120,119.4C620,565.8,566.1,619.4,500,619.4L500,619.4z M987.9,455.4c-1.3-14.3-11.7-26.1-25.8-29.2C885.5,409.2,843,388,832,361.4c-10.9-26.5,4.1-70.9,45.9-135.7c7.9-12.2,6.8-28-2.5-39c-18.3-21.8-38.7-42-60.5-60.2c-11.1-9.3-27-10.3-39.2-2.5c-51.8,33-90.2,49.1-117.4,49.1c-26.9,0-57.9-15.8-84.1-132.9c-3.2-14-15-24.4-29.4-25.7c-29.5-2.7-60-2.7-89.5,0C440.9,15.6,429,26,425.8,40c-26.2,117.1-57.2,132.9-84.1,132.9c-27.2,0-65.6-16.1-117.4-49.1c-12.2-7.8-28.1-6.7-39.2,2.5c-21.8,18.2-42.1,38.5-60.5,60.2c-9.3,11.1-10.4,26.8-2.5,39c41.8,64.9,56.8,109.3,45.9,135.7c-11,26.6-53.5,47.8-130.1,64.8c-14.1,3.1-24.5,14.9-25.8,29.2C10.8,470.1,10,485,10,500c0,15,0.8,29.9,2.1,44.6c1.3,14.3,11.7,26.1,25.8,29.2c76.5,17,119.1,38.2,130.1,64.8c10.9,26.5-4.1,70.9-45.9,135.8c-7.8,12.2-6.8,28,2.5,39c18.4,21.8,38.7,42,60.5,60.2c11.1,9.2,27,10.3,39.2,2.5c51.8-33,90.2-49.1,117.4-49.1c26.9,0,57.9,15.8,84.1,132.9c3.2,14,15,24.4,29.4,25.7c14.7,1.3,29.7,2.1,44.8,2.1c15.1,0,30-0.8,44.7-2.1c14.4-1.3,26.3-11.7,29.4-25.7C600.4,842.8,631.5,827,658.3,827c27.2,0,65.6,16,117.4,49.1c12.2,7.8,28.1,6.8,39.2-2.5c21.8-18.2,42.1-38.5,60.5-60.2c9.3-11.1,10.4-26.9,2.5-39c-41.8-64.9-56.8-109.3-45.9-135.8c11-26.6,53.5-47.8,130.1-64.8c14.1-3.1,24.5-14.9,25.8-29.2c1.3-14.7,2.1-29.5,2.1-44.6C990,484.9,989.2,470.1,987.9,455.4L987.9,455.4z M923.3,515.2c-86.5,22.2-134,53-152.7,98.3c-18.6,45.1-6.9,99.7,38.1,175.2c-6.1,6.4-12.3,12.7-18.8,18.7c-53.3-31.5-95.6-46.3-131.7-46.3c-86.4,0-122.7,81.2-143.1,160.4c-10.1,0.4-20.3,0.4-30.4,0C464.4,842.2,428.2,761,341.7,761c-36.1,0-78.4,14.8-131.7,46.3c-6.4-6-12.7-12.3-18.8-18.7c45-75.5,56.7-130.1,38.1-175.2c-18.7-45.3-66.2-76.1-152.7-98.3c-0.2-5-0.3-10.1-0.3-15.1c0-5.1,0.1-10.1,0.3-15.1c86.5-22.3,134-53.1,152.7-98.3c18.6-45.1,6.9-99.7-38.1-175.2c6.1-6.4,12.3-12.7,18.8-18.7c53.3,31.5,95.6,46.4,131.7,46.3c86.4,0,122.7-81.2,143.1-160.4c10.1-0.4,20.3-0.4,30.4,0C535.6,157.8,571.8,239,658.3,239c36.1,0,78.4-14.8,131.7-46.3c6.4,6,12.7,12.3,18.8,18.7c-45,75.5-56.7,130.1-38.1,175.2c18.7,45.3,66.2,76.1,152.7,98.3c0.2,5.1,0.3,10.1,0.3,15.2C923.7,505.1,923.5,510.1,923.3,515.2L923.3,515.2z"/></g>
</svg>