<?xml version="1.0" encoding="utf-8"?>
<!-- Svg Vector Icons : http://www.onlinewebfonts.com/icon -->
<!DOCTYPE svg PUBLIC "-//W3C//DTD SVG 1.1//EN" "http://www.w3.org/Graphics/SVG/1.1/DTD/svg11.dtd">
<svg version="1.1" xmlns="http://www.w3.org/2000/svg" xmlns:xlink="http://www.w3.org/1999/xlink" x="0px" y="0px" viewBox="0 0 1000 1000" enable-background="new 0 0 1000 1000" xml:space="preserve">
<metadata> Svg Vector Icons : http://www.onlinewebfonts.com/icon </metadata>
<g><path d="M500,236.2c-145.5,0-263.8,118.4-263.8,263.8c0,145.5,118.4,263.8,263.8,263.8S763.8,645.5,763.8,500C763.8,354.5,645.5,236.2,500,236.2z M500,688.5c-104.1,0-188.5-84.4-188.5-188.5c0-104.1,84.4-188.5,188.5-188.5c104.1,0,188.5,84.4,188.5,188.5C688.5,604.1,604.1,688.5,500,688.5z M500,160.8c20.8,0,37.7-16.9,37.7-37.7V47.7c0-20.8-16.9-37.7-37.7-37.7c-20.8,0-37.7,16.9-37.7,37.7v75.4C462.3,143.9,479.2,160.8,500,160.8z M500,839.2c-20.8,0-37.7,16.9-37.7,37.7v75.4c0,20.8,16.9,37.7,37.7,37.7c20.8,0,37.7-16.9,37.7-37.7v-75.4C537.7,856.1,520.8,839.2,500,839.2z M793.1,260.1l53.3-53.3c14.7-14.7,14.7-38.6,0-53.3c-14.7-14.7-38.6-14.7-53.3,0l-53.3,53.3c-14.7,14.7-14.7,38.6,0,53.3C754.6,274.8,778.4,274.8,793.1,260.1z M206.9,739.9l-53.3,53.3c-14.7,14.7-14.7,38.6,0,53.3c14.7,14.7,38.6,14.7,53.3,0l53.3-53.3c14.7-14.8,14.7-38.6,0-53.3C245.4,725.2,221.6,725.1,206.9,739.9z M160.8,500c0-20.8-16.9-37.7-37.7-37.7H47.7C26.9,462.3,10,479.2,10,500c0,20.8,16.9,37.7,37.7,37.7h75.4C143.9,537.7,160.8,520.8,160.8,500z M952.3,462.3h-75.4c-20.8,0-37.7,16.9-37.7,37.7c0,20.8,16.9,37.7,37.7,37.7h75.4c20.8,0,37.7-16.9,37.7-37.7C990,479.2,973.1,462.3,952.3,462.3z M206.8,260.1c14.7,14.7,38.6,14.7,53.3,0c14.7-14.7,14.7-38.6,0-53.3l-53.3-53.3c-14.7-14.7-38.6-14.7-53.3,0c-14.7,14.7-14.7,38.6,0,53.3L206.8,260.1L206.8,260.1z M793.2,739.8c-14.8-14.7-38.6-14.7-53.3,0c-14.7,14.7-14.8,38.6,0,53.3l53.3,53.3c14.7,14.7,38.6,14.7,53.3,0c14.7-14.7,14.7-38.6,0-53.3L793.2,739.8z"/></g>
</svg>