<?xml version="1.0" encoding="utf-8"?>
<!-- Generator: Adobe Illustrator 24.1.2, SVG Export Plug-In . SVG Version: 6.00 Build 0)  -->
<svg version="1.1" id="Слой_1" xmlns="http://www.w3.org/2000/svg" xmlns:xlink="http://www.w3.org/1999/xlink" x="0px" y="0px"
	 viewBox="0 0 1000 1000" style="enable-background:new 0 0 1000 1000;" xml:space="preserve">
<style type="text/css">
	.st0{fill:#FAFF31;}
</style>
<circle cx="500" cy="500" r="263.8"/>
<circle class="st0" cx="500" cy="500" r="188.5"/>
<path d="M500,160.8c20.8,0,37.7-16.9,37.7-37.7V47.7c0-20.8-16.9-37.7-37.7-37.7s-37.7,16.9-37.7,37.7v75.4
	C462.3,143.9,479.2,160.8,500,160.8z"/>
<path d="M500,839.2c-20.8,0-37.7,16.9-37.7,37.7v75.4c0,20.8,16.9,37.7,37.7,37.7c20.8,0,37.7-16.9,37.7-37.7v-75.4
	C537.7,856.1,520.8,839.2,500,839.2z"/>
<path d="M793.1,260.1l53.3-53.3c14.7-14.7,14.7-38.6,0-53.3c-14.7-14.7-38.6-14.7-53.3,0l-53.3,53.3c-14.7,14.7-14.7,38.6,0,53.3
	C754.6,274.8,778.4,274.8,793.1,260.1z"/>
<path d="M206.9,739.9l-53.3,53.3c-14.7,14.7-14.7,38.6,0,53.3s38.6,14.7,53.3,0l53.3-53.3c14.7-14.8,14.7-38.6,0-53.3
	C245.4,725.2,221.6,725.1,206.9,739.9z"/>
<path d="M160.8,500c0-20.8-16.9-37.7-37.7-37.7H47.7C26.9,462.3,10,479.2,10,500s16.9,37.7,37.7,37.7h75.4
	C143.9,537.7,160.8,520.8,160.8,500z"/>
<path d="M952.3,462.3h-75.4c-20.8,0-37.7,16.9-37.7,37.7c0,20.8,16.9,37.7,37.7,37.7h75.4c20.8,0,37.7-16.9,37.7-37.7
	S973.1,462.3,952.3,462.3z"/>
<path d="M206.8,260.1c14.7,14.7,38.6,14.7,53.3,0s14.7-38.6,0-53.3l-53.3-53.3c-14.7-14.7-38.6-14.7-53.3,0
	c-14.7,14.7-14.7,38.6,0,53.3L206.8,260.1L206.8,260.1z"/>
<path d="M793.2,739.8c-14.8-14.7-38.6-14.7-53.3,0s-14.8,38.6,0,53.3l53.3,53.3c14.7,14.7,38.6,14.7,53.3,0s14.7-38.6,0-53.3
	L793.2,739.8z"/>
</svg>
