<?xml version="1.0" encoding="utf-8"?>
<!-- Svg Vector Icons : http://www.onlinewebfonts.com/icon -->
<!DOCTYPE svg PUBLIC "-//W3C//DTD SVG 1.1//EN" "http://www.w3.org/Graphics/SVG/1.1/DTD/svg11.dtd">
<svg version="1.1" xmlns="http://www.w3.org/2000/svg" xmlns:xlink="http://www.w3.org/1999/xlink" x="0px" y="0px" viewBox="0 0 1000 1000" enable-background="new 0 0 1000 1000" xml:space="preserve">
<metadata> Svg Vector Icons : http://www.onlinewebfonts.com/icon </metadata>
<g><g transform="translate(0.000000,511.000000) scale(0.100000,-0.100000)"><path d="M1936.9,5049.8c-975.2-211-1765.2-1120.5-1833.1-2119.1c-35.2-480.6,175.8-1108.8,522.8-1563.5c173.5-229.7,583.7-618.9,846.2-804c670.4-475.8,1329.1-808.7,2156.6-1090c42.2-16.4,4.7-77.4-133.6-218C3310.6-939.5,3102-984,2147.9-1042.6C1104.8-1108.3,828.1-1169.2,584.4-1399c-321.1-300-475.9-677.5-475.9-1167.4c0-438.4,105.5-771.2,372.7-1174.4C884.4-4343.2,1573.6-4753.4,2262.8-4798c264.9-16.4,497,18.8,792.3,121.9c450.1,157.1,764.2,356.3,1118.2,712.6c497,499.3,1061.9,1415.8,1371.3,2222.2c58.6,152.4,114.9,297.7,126.6,321.1c16.4,42.2,25.8,37.5,114.9-42.2c173.5-157.1,241.4-424.3,283.6-1115.8c68-1059.6,110.2-1352.6,236.8-1610.4c128.9-262.5,447.7-497,843.9-618.8c222.7-70.3,651.7-75,890.8-11.7c689.2,180.5,1251.8,637.6,1568.2,1270.5c196.9,393.8,276.6,855.6,213.3,1244.8c-35.2,229.7-178.1,632.9-290.7,836.8c-208.6,375.1-560.2,752.5-1003.3,1083C7952,45,7194.9,448.2,6545.5,668.6l-218,72.7l93.8,119.6c241.4,304.7,419.6,349.3,1666.7,417.3c625.9,35.2,1066.6,128.9,1258.8,267.2c192.2,138.3,393.8,443,492.3,740.8c53.9,166.4,60.9,225,60.9,504c0,274.3-7,342.2-60.9,522.7c-257.9,846.2-951.7,1488.5-1805,1669c-211,46.9-588.4,44.5-792.3-2.3c-972.8-220.4-1666.7-865-2416.8-2236.3c-171.1-314.1-354-726.7-443-1001c-28.1-93.8-65.6-171.1-79.7-171.1c-37.5,0-234.4,211-274.3,293c-86.7,173.5-124.2,436-171.1,1195.5c-70.3,1125.2-152.4,1408.8-473.5,1664.3c-182.8,143-473.5,286-675.1,328.2C2501.9,5094.3,2147.9,5094.3,1936.9,5049.8z M2731.6,4524.7c171.1-58.6,405.5-229.7,461.8-335.2c79.7-154.7,114.9-452.4,182.8-1469.8c53.9-797,152.4-1120.5,424.3-1383c107.8-103.1,768.9-597.8,780.6-583.7c4.7,4.7,89.1,260.2,189.9,567.3c253.2,775.9,569.6,1406.5,1038.5,2067.5c192.2,269.6,611.8,682.1,832.2,818.1c255.5,159.4,654,295.4,909.5,311.8c539.2,35.2,1136.9-257.9,1502.6-740.8c429-567.3,471.2-1258.8,107.8-1718.3c-133.6-171.1-368-232.1-1061.9-276.6c-1361.9-86.7-1601-140.7-1910.5-436c-140.6-133.6-654-843.9-632.9-872c7-9.4,227.4-86.7,492.3-171.1C6763.5,73.2,7087-69.8,7677.8-421.4c562.6-335.2,979.8-677.5,1230.7-1012.7c175.8-232.1,253.2-382.1,351.6-686.8c128.9-389.1,105.5-764.2-70.3-1151c-225-499.3-717.3-916.6-1235.4-1050.2c-208.6-53.9-536.8-49.2-715,11.7c-164.1,53.9-365.7,180.5-450.1,281.3c-100.8,117.2-159.4,471.2-201.6,1216.6c-53.9,963.4-128.9,1317.4-325.8,1565.9c-114.8,143-140.6,164.1-518,459.4l-316.5,248.5l-178.2-534.5c-267.2-794.7-459.4-1195.5-876.7-1833.1c-213.3-328.2-372.7-527.4-588.4-740.7c-286-283.7-527.4-433.7-911.9-562.6c-234.4-79.7-281.3-86.7-504-86.7c-211,0-279,11.7-468.8,72.7c-689.2,225.1-1195.5,811.1-1291.6,1493.2c-53.9,386.8,112.5,834.5,372.7,1010.3c131.3,89.1,450.1,131.3,1488.5,196.9c775.9,51.6,1106.4,147.7,1364.3,407.9c107.8,107.9,618.9,799.4,621.2,839.2c0,9.4-154.7,65.6-344.6,124.2C3174.6,136.5,2626.1,389.6,1934.6,851.4c-391.5,262.5-785.3,623.5-965.8,883.8c-257.9,377.4-410.2,900.1-361,1247.1C715.6,3758.2,1350.9,4438,2094,4571.6C2269.8,4602.1,2569.9,4581,2731.6,4524.7z"/></g></g>
</svg>