<?xml version="1.0" encoding="utf-8"?>
<!-- Svg Vector Icons : http://www.onlinewebfonts.com/icon -->
<!DOCTYPE svg PUBLIC "-//W3C//DTD SVG 1.1//EN" "http://www.w3.org/Graphics/SVG/1.1/DTD/svg11.dtd">
<svg version="1.1" xmlns="http://www.w3.org/2000/svg" xmlns:xlink="http://www.w3.org/1999/xlink" x="0px" y="0px" viewBox="0 0 1000 1000" enable-background="new 0 0 1000 1000" xml:space="preserve">
<metadata> Svg Vector Icons : http://www.onlinewebfonts.com/icon </metadata>
<g><path d="M500,990C229.4,990,10,770.6,10,500C10,229.4,229.4,10,500,10c270.6,0,490,219.4,490,490C990,770.6,770.6,990,500,990z M412.9,906.7c90.4,36.7,172.2-17.9,207.7-77.5c27.1-45.5,22.7-125.9,0-177.3c-14.8-33.5-48.8-88.6-88.6-88.6c-45.6,0-44.6,100-85.9,121.9C346.8,737.9,317,867.8,412.9,906.7z M310.5,448.3C257.8,349,127.8,319.2,88.9,415.1c-36.7,90.4,17.9,172.2,77.5,207.7c45.5,27.1,125.9,22.7,177.3,0c33.5-14.8,88.6-48.8,88.6-88.6C432.3,488.5,332.4,489.5,310.5,448.3z M580.6,91.1c-90.4-36.7-172.2,17.9-207.7,77.5c-27.1,45.5-22.7,125.9,0,177.3c14.8,33.5,48.8,88.6,88.6,88.6c45.6,0,44.6-100,85.9-121.9C646.6,260,676.4,130,580.6,91.1z M827,375c-45.5-27.1-125.9-22.7-177.3,0c-33.5,14.8-88.6,48.8-88.6,88.6c0,45.6,100,44.6,121.9,85.9c52.7,99.3,182.7,129.1,221.6,33.2C941.2,492.3,886.6,410.5,827,375z"/></g>
</svg>