<?xml version="1.0" encoding="utf-8"?>
<!-- Svg Vector Icons : http://www.onlinewebfonts.com/icon -->
<!DOCTYPE svg PUBLIC "-//W3C//DTD SVG 1.1//EN" "http://www.w3.org/Graphics/SVG/1.1/DTD/svg11.dtd">
<svg version="1.1" xmlns="http://www.w3.org/2000/svg" xmlns:xlink="http://www.w3.org/1999/xlink" x="0px" y="0px" viewBox="0 0 1000 1000" enable-background="new 0 0 1000 1000" xml:space="preserve">
<metadata> Svg Vector Icons : http://www.onlinewebfonts.com/icon </metadata>
<g><path d="M867.9,957.3H132.1c-49.3,0-89-19.5-108.8-53.5c-19.8-34-17.4-78.4,6.6-121.8l371.3-670.6c24.2-43.7,60.1-68.8,98.6-68.8c38.5,0,74.4,25,98.6,68.7L970,782.1c24,43.4,26.5,87.8,6.7,121.8C956.9,937.9,917.3,957.3,867.9,957.3L867.9,957.3z M499.8,113.1c-12.2,0-26.2,12.2-37.6,32.7L90.9,816.4c-11.6,21-14.4,40-7.4,51.9c7,11.9,24.7,18.7,48.5,18.7h735.9c23.9,0,41.6-6.8,48.5-18.7c6.9-11.9,4.2-30.8-7.4-51.8L537.4,145.7C526.1,125.3,512,113.1,499.8,113.1L499.8,113.1z M500,639.8c-19.3,0-34.9-15.7-34.9-35.2V287.8c0-19.4,15.6-35.2,34.9-35.2c19.3,0,34.9,15.8,34.9,35.2v316.8C534.9,624.1,519.3,639.8,500,639.8z M499.8,811.8c30.1,0,54.4-24.6,54.4-54.9c0-30.3-24.4-54.9-54.4-54.9c-30.1,0-54.4,24.6-54.4,54.9C445.3,787.2,469.7,811.8,499.8,811.8z"/></g>
</svg>